<svg width="24" height="24" viewBox="0 0 24 24" fill="none" xmlns="http://www.w3.org/2000/svg">
<path d="M21.7099 7.29189C21.617 7.19816 21.5064 7.12377 21.3845 7.073C21.2627 7.02223 21.132 6.99609 20.9999 6.99609C20.8679 6.99609 20.7372 7.02223 20.6154 7.073C20.4935 7.12377 20.3829 7.19816 20.2899 7.29189L13.9999 13.5919L9.70994 9.29189C9.61698 9.19816 9.50637 9.12377 9.38452 9.073C9.26266 9.02223 9.13195 8.99609 8.99994 8.99609C8.86793 8.99609 8.73722 9.02223 8.61536 9.073C8.4935 9.12377 8.3829 9.19816 8.28994 9.29189L2.28994 15.2919C2.19621 15.3849 2.12182 15.4955 2.07105 15.6173C2.02028 15.7392 1.99414 15.8699 1.99414 16.0019C1.99414 16.1339 2.02028 16.2646 2.07105 16.3865C2.12182 16.5083 2.19621 16.6189 2.28994 16.7119C2.3829 16.8056 2.4935 16.88 2.61536 16.9308C2.73722 16.9816 2.86793 17.0077 2.99994 17.0077C3.13195 17.0077 3.26266 16.9816 3.38452 16.9308C3.50637 16.88 3.61698 16.8056 3.70994 16.7119L8.99994 11.4119L13.2899 15.7119C13.3829 15.8056 13.4935 15.88 13.6154 15.9308C13.7372 15.9816 13.8679 16.0077 13.9999 16.0077C14.132 16.0077 14.2627 15.9816 14.3845 15.9308C14.5064 15.88 14.617 15.8056 14.7099 15.7119L21.7099 8.71189C21.8037 8.61893 21.8781 8.50833 21.9288 8.38647C21.9796 8.26461 22.0057 8.1339 22.0057 8.00189C22.0057 7.86988 21.9796 7.73917 21.9288 7.61732C21.8781 7.49546 21.8037 7.38486 21.7099 7.29189Z" fill="white"/>
</svg>
